<svg width="478" height="64" viewBox="0 0 478 64" fill="none" xmlns="http://www.w3.org/2000/svg">
<path d="M22.28 58.72C19.7733 58.72 17.3467 58.5067 15 58.08C12.6533 57.7067 10.44 57.12 8.36 56.32C6.28 55.52 4.41333 54.5333 2.76 53.36C2.06667 52.88 1.56 52.2933 1.24 51.6C0.973333 50.9067 0.893333 50.24 1 49.6C1.16 48.9067 1.45333 48.32 1.88 47.84C2.36 47.36 2.92 47.0667 3.56 46.96C4.2 46.8533 4.89333 47.0667 5.64 47.6C8.09333 49.2533 10.6533 50.4533 13.32 51.2C16.04 51.9467 19.0267 52.32 22.28 52.32C26.9733 52.32 30.4133 51.4667 32.6 49.76C34.84 48.0533 35.96 45.8133 35.96 43.04C35.96 40.7467 35.16 38.96 33.56 37.68C31.96 36.3467 29.2667 35.3067 25.48 34.56L17 32.8C11.9867 31.7333 8.22667 29.9733 5.72 27.52C3.26667 25.0667 2.04 21.7867 2.04 17.68C2.04 15.1733 2.54667 12.9067 3.56 10.88C4.57333 8.8 6.01333 7.01333 7.88 5.52C9.74667 4.02667 11.9333 2.88 14.44 2.08C17 1.28 19.8267 0.879996 22.92 0.879996C26.2267 0.879996 29.32 1.33333 32.2 2.24C35.1333 3.14667 37.7733 4.48 40.12 6.24C40.76 6.72 41.1867 7.30667 41.4 8C41.6133 8.64 41.64 9.28 41.48 9.92C41.3733 10.56 41.08 11.0933 40.6 11.52C40.1733 11.9467 39.6133 12.1867 38.92 12.24C38.28 12.2933 37.56 12.0533 36.76 11.52C34.6267 10.0267 32.44 8.96 30.2 8.32C27.96 7.62667 25.5067 7.28 22.84 7.28C20.12 7.28 17.7467 7.70667 15.72 8.56C13.7467 9.41333 12.2 10.6133 11.08 12.16C10.0133 13.6533 9.48 15.4133 9.48 17.44C9.48 19.8933 10.2267 21.8133 11.72 23.2C13.2133 24.5867 15.72 25.6533 19.24 26.4L27.64 28.08C32.9733 29.2 36.92 30.9333 39.48 33.28C42.0933 35.5733 43.4 38.6667 43.4 42.56C43.4 45.0133 42.8933 47.2267 41.88 49.2C40.92 51.1733 39.5333 52.88 37.72 54.32C35.9067 55.7067 33.6933 56.8 31.08 57.6C28.4667 58.3467 25.5333 58.72 22.28 58.72ZM71.0931 58.72C66.8798 58.72 63.2531 57.92 60.2131 56.32C57.2265 54.6667 54.9065 52.3467 53.2531 49.36C51.5998 46.32 50.7731 42.7467 50.7731 38.64C50.7731 34.5867 51.5731 31.04 53.1731 28C54.8265 24.96 57.0665 22.5867 59.8931 20.88C62.7731 19.1733 66.0531 18.32 69.7331 18.32C72.3465 18.32 74.6931 18.7733 76.7731 19.68C78.9065 20.5333 80.7198 21.7867 82.2131 23.44C83.7065 25.0933 84.8265 27.12 85.5731 29.52C86.3731 31.8667 86.7731 34.5333 86.7731 37.52C86.7731 38.3733 86.5065 39.04 85.9731 39.52C85.4931 39.9467 84.7731 40.16 83.8131 40.16H56.4531V35.52H81.9731L80.6131 36.64C80.6131 33.8667 80.1865 31.52 79.3331 29.6C78.5331 27.6267 77.3331 26.1333 75.7331 25.12C74.1865 24.1067 72.2398 23.6 69.8931 23.6C67.3331 23.6 65.1465 24.2133 63.3331 25.44C61.5198 26.6133 60.1331 28.2933 59.1731 30.48C58.2131 32.6133 57.7331 35.0933 57.7331 37.92V38.4C57.7331 43.2 58.8798 46.8267 61.1731 49.28C63.4665 51.7333 66.7731 52.96 71.0931 52.96C72.7998 52.96 74.5331 52.7467 76.2931 52.32C78.1065 51.8933 79.8398 51.12 81.4931 50C82.2931 49.52 83.0131 49.3067 83.6531 49.36C84.3465 49.36 84.9065 49.5733 85.3331 50C85.7598 50.3733 86.0265 50.8533 86.1331 51.44C86.2398 51.9733 86.1598 52.56 85.8931 53.2C85.6265 53.84 85.1198 54.4 84.3731 54.88C82.6131 56.1067 80.5065 57.0667 78.0531 57.76C75.6531 58.4 73.3331 58.72 71.0931 58.72ZM109.027 58.72C106.361 58.72 103.934 58.1867 101.747 57.12C99.6142 56.0533 97.9342 54.6133 96.7075 52.8C95.5342 50.9867 94.9475 48.96 94.9475 46.72C94.9475 43.84 95.6675 41.5733 97.1075 39.92C98.5475 38.2667 100.974 37.0933 104.387 36.4C107.801 35.6533 112.387 35.28 118.147 35.28H121.908V39.92H118.307C114.201 39.92 110.947 40.1067 108.547 40.48C106.201 40.8533 104.547 41.52 103.587 42.48C102.627 43.3867 102.147 44.6667 102.147 46.32C102.147 48.4 102.867 50.1067 104.307 51.44C105.801 52.7733 107.827 53.44 110.387 53.44C112.414 53.44 114.201 52.96 115.747 52C117.294 50.9867 118.521 49.6533 119.427 48C120.334 46.2933 120.788 44.3467 120.788 42.16V32.96C120.788 29.8133 120.148 27.5467 118.867 26.16C117.587 24.72 115.427 24 112.387 24C110.627 24 108.814 24.24 106.947 24.72C105.081 25.2 103.134 25.9467 101.107 26.96C100.307 27.3333 99.6142 27.4667 99.0275 27.36C98.4408 27.2 97.9608 26.88 97.5875 26.4C97.2675 25.8667 97.0808 25.3067 97.0275 24.72C97.0275 24.08 97.1608 23.4667 97.4275 22.88C97.7475 22.2933 98.2808 21.8667 99.0275 21.6C101.374 20.4267 103.694 19.6 105.987 19.12C108.334 18.5867 110.521 18.32 112.547 18.32C116.014 18.32 118.867 18.88 121.107 20C123.348 21.0667 125.028 22.7467 126.148 25.04C127.268 27.28 127.828 30.16 127.828 33.68V54.8C127.828 56.0267 127.534 56.96 126.948 57.6C126.361 58.24 125.507 58.56 124.387 58.56C123.321 58.56 122.467 58.24 121.827 57.6C121.241 56.96 120.947 56.0267 120.947 54.8V49.12H121.667C121.241 51.0933 120.441 52.8 119.267 54.24C118.094 55.68 116.628 56.8 114.868 57.6C113.161 58.3467 111.214 58.72 109.027 58.72ZM143.844 58.56C142.617 58.56 141.684 58.24 141.044 57.6C140.404 56.96 140.084 56.0267 140.084 54.8V22.16C140.084 20.9333 140.404 20.0267 141.044 19.44C141.684 18.8 142.564 18.48 143.684 18.48C144.804 18.48 145.657 18.8 146.244 19.44C146.884 20.0267 147.204 20.9333 147.204 22.16V28.32H146.404C147.257 25.12 148.857 22.6933 151.204 21.04C153.55 19.3867 156.51 18.4533 160.084 18.24C160.937 18.1867 161.63 18.4 162.164 18.88C162.697 19.3067 162.99 20.0533 163.044 21.12C163.097 22.1333 162.857 22.96 162.324 23.6C161.79 24.1867 160.964 24.5333 159.844 24.64L158.404 24.72C154.884 25.0933 152.164 26.24 150.244 28.16C148.377 30.08 147.444 32.72 147.444 36.08V54.8C147.444 56.0267 147.124 56.96 146.484 57.6C145.897 58.24 145.017 58.56 143.844 58.56ZM186.436 58.72C182.489 58.72 179.076 57.8933 176.196 56.24C173.316 54.5333 171.102 52.16 169.556 49.12C168.009 46.0267 167.236 42.4 167.236 38.24C167.236 35.1467 167.662 32.3733 168.516 29.92C169.422 27.4667 170.702 25.3867 172.356 23.68C174.009 21.92 176.009 20.5867 178.356 19.68C180.756 18.7733 183.449 18.32 186.436 18.32C188.302 18.32 190.276 18.6133 192.356 19.2C194.436 19.7867 196.356 20.7467 198.116 22.08C198.702 22.5067 199.076 23.0133 199.236 23.6C199.396 24.1333 199.396 24.6933 199.236 25.28C199.129 25.8667 198.862 26.3733 198.436 26.8C198.062 27.1733 197.556 27.3867 196.916 27.44C196.329 27.4933 195.689 27.3067 194.996 26.88C193.716 25.92 192.356 25.2267 190.916 24.8C189.529 24.3733 188.196 24.16 186.916 24.16C184.942 24.16 183.182 24.48 181.636 25.12C180.142 25.76 178.862 26.6933 177.796 27.92C176.782 29.0933 176.009 30.56 175.476 32.32C174.942 34.0267 174.676 36.0267 174.676 38.32C174.676 42.8533 175.742 46.4267 177.876 49.04C180.009 51.6 183.022 52.88 186.916 52.88C188.196 52.88 189.529 52.6933 190.916 52.32C192.302 51.8933 193.662 51.2 194.996 50.24C195.689 49.8133 196.329 49.6533 196.916 49.76C197.502 49.8133 197.982 50.0533 198.356 50.48C198.782 50.8533 199.049 51.3333 199.156 51.92C199.262 52.4533 199.209 53.0133 198.996 53.6C198.836 54.1867 198.462 54.6667 197.876 55.04C196.169 56.32 194.302 57.2533 192.276 57.84C190.249 58.4267 188.302 58.72 186.436 58.72ZM211.143 58.56C210.023 58.56 209.143 58.24 208.503 57.6C207.863 56.96 207.543 56.0267 207.543 54.8V4.72C207.543 3.49333 207.863 2.58666 208.503 2C209.143 1.36 210.023 1.04 211.143 1.04C212.316 1.04 213.223 1.36 213.863 2C214.503 2.58666 214.823 3.49333 214.823 4.72V27.52H213.783C214.903 24.48 216.716 22.1867 219.223 20.64C221.783 19.0933 224.69 18.32 227.943 18.32C231.09 18.32 233.676 18.9067 235.703 20.08C237.73 21.2 239.25 22.9067 240.263 25.2C241.276 27.4933 241.783 30.3733 241.783 33.84V54.8C241.783 56.0267 241.463 56.96 240.823 57.6C240.236 58.24 239.356 58.56 238.183 58.56C237.01 58.56 236.103 58.24 235.463 57.6C234.823 56.96 234.503 56.0267 234.503 54.8V34.24C234.503 30.7733 233.836 28.24 232.503 26.64C231.17 25.04 229.036 24.24 226.103 24.24C222.69 24.24 219.943 25.3067 217.863 27.44C215.836 29.52 214.823 32.3467 214.823 35.92V54.8C214.823 57.3067 213.596 58.56 211.143 58.56Z" fill="#0069CA"/>
<path d="M290.664 58.72C287.25 58.72 284.237 57.92 281.624 56.32C279.064 54.6667 277.064 52.32 275.624 49.28C274.184 46.1867 273.464 42.5867 273.464 38.48C273.464 34.32 274.157 30.7467 275.544 27.76C276.984 24.72 278.984 22.4 281.544 20.8C284.157 19.1467 287.197 18.32 290.664 18.32C294.13 18.32 297.117 19.2 299.624 20.96C302.13 22.6667 303.81 24.96 304.664 27.84H303.784V4.72C303.784 3.49333 304.077 2.58666 304.664 2C305.304 1.36 306.21 1.04 307.384 1.04C308.557 1.04 309.464 1.36 310.104 2C310.744 2.58666 311.064 3.49333 311.064 4.72V54.8C311.064 56.0267 310.744 56.96 310.104 57.6C309.464 58.24 308.557 58.56 307.384 58.56C306.264 58.56 305.384 58.24 304.744 57.6C304.104 56.96 303.784 56.0267 303.784 54.8V47.52L304.664 48.96C303.864 51.9467 302.184 54.32 299.624 56.08C297.117 57.84 294.13 58.72 290.664 58.72ZM292.344 52.96C294.69 52.96 296.717 52.4 298.424 51.28C300.184 50.16 301.517 48.5333 302.424 46.4C303.384 44.2667 303.864 41.6267 303.864 38.48C303.864 33.7867 302.824 30.2133 300.744 27.76C298.664 25.3067 295.864 24.08 292.344 24.08C290.05 24.08 288.024 24.64 286.264 25.76C284.557 26.8267 283.224 28.4267 282.264 30.56C281.304 32.6933 280.824 35.3333 280.824 38.48C280.824 43.1733 281.864 46.7733 283.944 49.28C286.077 51.7333 288.877 52.96 292.344 52.96ZM321.857 64C320.95 64 320.177 63.7067 319.537 63.12C318.95 62.5867 318.657 61.8933 318.657 61.04C318.657 60.1867 318.95 59.4667 319.537 58.88C320.177 58.2933 320.95 58 321.857 58H353.617C354.524 58 355.27 58.2933 355.857 58.88C356.444 59.4667 356.737 60.1867 356.737 61.04C356.737 61.8933 356.444 62.5867 355.857 63.12C355.27 63.7067 354.524 64 353.617 64H321.857ZM382.337 58.72C378.124 58.72 374.497 57.92 371.457 56.32C368.47 54.6667 366.15 52.3467 364.497 49.36C362.844 46.32 362.017 42.7467 362.017 38.64C362.017 34.5867 362.817 31.04 364.417 28C366.07 24.96 368.31 22.5867 371.137 20.88C374.017 19.1733 377.297 18.32 380.977 18.32C383.59 18.32 385.937 18.7733 388.017 19.68C390.15 20.5333 391.964 21.7867 393.457 23.44C394.95 25.0933 396.07 27.12 396.817 29.52C397.617 31.8667 398.017 34.5333 398.017 37.52C398.017 38.3733 397.75 39.04 397.217 39.52C396.737 39.9467 396.017 40.16 395.057 40.16H367.697V35.52H393.217L391.857 36.64C391.857 33.8667 391.43 31.52 390.577 29.6C389.777 27.6267 388.577 26.1333 386.977 25.12C385.43 24.1067 383.484 23.6 381.137 23.6C378.577 23.6 376.39 24.2133 374.577 25.44C372.764 26.6133 371.377 28.2933 370.417 30.48C369.457 32.6133 368.977 35.0933 368.977 37.92V38.4C368.977 43.2 370.124 46.8267 372.417 49.28C374.71 51.7333 378.017 52.96 382.337 52.96C384.044 52.96 385.777 52.7467 387.537 52.32C389.35 51.8933 391.084 51.12 392.737 50C393.537 49.52 394.257 49.3067 394.897 49.36C395.59 49.36 396.15 49.5733 396.577 50C397.004 50.3733 397.27 50.8533 397.377 51.44C397.484 51.9733 397.404 52.56 397.137 53.2C396.87 53.84 396.364 54.4 395.617 54.88C393.857 56.1067 391.75 57.0667 389.297 57.76C386.897 58.4 384.577 58.72 382.337 58.72ZM422.124 58.56C421.111 58.56 420.231 58.2933 419.484 57.76C418.738 57.2267 418.098 56.3733 417.564 55.2L403.964 23.52C403.591 22.6133 403.458 21.7867 403.564 21.04C403.671 20.2933 404.018 19.68 404.604 19.2C405.244 18.72 406.098 18.48 407.164 18.48C408.071 18.48 408.791 18.6933 409.324 19.12C409.858 19.5467 410.364 20.2933 410.844 21.36L423.404 52.32H421.164L434.044 21.36C434.471 20.2933 434.951 19.5467 435.484 19.12C436.071 18.6933 436.871 18.48 437.884 18.48C438.791 18.48 439.484 18.72 439.964 19.2C440.498 19.68 440.818 20.2933 440.924 21.04C441.031 21.7867 440.871 22.5867 440.444 23.44L426.764 55.2C426.284 56.3733 425.644 57.2267 424.844 57.76C424.098 58.2933 423.191 58.56 422.124 58.56ZM462.189 58.72C459.789 58.72 457.363 58.4533 454.909 57.92C452.509 57.3333 450.243 56.3467 448.109 54.96C447.523 54.5867 447.096 54.1333 446.829 53.6C446.616 53.0133 446.536 52.4533 446.589 51.92C446.696 51.3333 446.936 50.8267 447.309 50.4C447.683 49.9733 448.136 49.7333 448.669 49.68C449.256 49.5733 449.869 49.7067 450.509 50.08C452.589 51.2533 454.589 52.08 456.509 52.56C458.483 53.04 460.429 53.28 462.349 53.28C465.283 53.28 467.496 52.7467 468.989 51.68C470.483 50.6133 471.229 49.2 471.229 47.44C471.229 45.9467 470.723 44.8 469.709 44C468.749 43.1467 467.229 42.5067 465.149 42.08L457.709 40.56C454.403 39.8133 451.896 38.5867 450.189 36.88C448.536 35.12 447.709 32.88 447.709 30.16C447.709 27.76 448.349 25.68 449.629 23.92C450.963 22.1067 452.803 20.72 455.149 19.76C457.496 18.8 460.189 18.32 463.229 18.32C465.576 18.32 467.789 18.64 469.869 19.28C472.003 19.8667 473.923 20.7733 475.629 22C476.269 22.3733 476.669 22.8533 476.829 23.44C477.043 23.9733 477.069 24.5333 476.909 25.12C476.803 25.6533 476.563 26.1067 476.189 26.48C475.816 26.8533 475.336 27.0933 474.749 27.2C474.163 27.2533 473.523 27.0933 472.829 26.72C471.283 25.6533 469.683 24.9067 468.029 24.48C466.429 24 464.829 23.76 463.229 23.76C460.349 23.76 458.163 24.32 456.669 25.44C455.229 26.56 454.509 28.0267 454.509 29.84C454.509 31.2267 454.936 32.3733 455.789 33.28C456.696 34.1867 458.109 34.8533 460.029 35.28L467.469 36.8C470.936 37.5467 473.549 38.7467 475.309 40.4C477.069 42 477.949 44.1867 477.949 46.96C477.949 50.5867 476.509 53.4667 473.629 55.6C470.803 57.68 466.989 58.72 462.189 58.72Z" fill="#8C19D2"/>
</svg>
